2.2Hz3min_grf.mot
version=1
nRows=15
nColumns 19
inDegrees=yes
endheader
time	1_ground_force_vx	1_ground_force_vy	1_ground_force_vz	1_ground_force_px	1_ground_force_py	1_ground_force_pz	1_ground_torque_x	1_ground_torque_y	1_ground_torque_z	2_ground_force_vx	2_ground_force_vy	2_ground_force_vz	2_ground_force_px	2_ground_force_py	2_ground_force_pz	2_ground_torque_x	2_ground_torque_y	2_ground_torque_z
            1.253500	            0.138164	           -0.361488	            0.227392	           -0.233013	            0.005581	           -0.255695	            0.008888	            0.148532	           -0.125095	           -0.046391	           -0.182644	           -0.469918	           -0.232311	            0.006130	           -0.833667	           -0.075466	            0.094121	            0.038070
            1.254000	            0.000668	           -0.541780	            0.226961	           -0.233013	            0.005581	           -0.255695	            0.009247	            0.018658	           -0.037520	           -0.187626	            0.001164	           -0.516129	           -0.232311	            0.006130	           -0.833667	           -0.037920	            0.094459	           -0.018497
            1.254500	            0.046185	           -0.000581	            0.137454	           -0.233013	            0.005581	           -0.255695	            0.088015	           -0.083148	            0.001380	           -0.327367	           -0.184663	           -0.188230	           -0.232311	            0.006130	           -0.833667	           -0.131557	            0.018363	            0.018974
            1.255000	            0.183261	           -1.261234	           -0.143434	           -0.233013	            0.005581	           -0.255695	           -0.030909	           -0.175390	           -0.030408	            0.096235	           -0.735251	           -0.284237	           -0.232311	            0.006130	           -0.833667	           -0.075091	           -0.009858	            0.037699
            1.255500	            0.183440	           -1.621962	           -0.099124	           -0.233013	            0.005581	           -0.255695	           -0.051147	           -0.055712	            0.082957	           -0.231009	           -0.920918	           -0.190898	           -0.232311	            0.006130	           -0.833667	            0.075390	           -0.075149	           -0.056852
            1.256000	            0.000329	           -1.802657	           -0.007730	           -0.233013	            0.005581	           -0.255695	            0.113743	            0.009346	           -0.018976	            0.001226	           -0.367460	           -0.235955	           -0.232311	            0.006130	           -0.833667	            0.000136	           -0.037811	           -0.000135
            1.256500	            0.138134	           -1.442689	            0.131043	           -0.233013	            0.005581	           -0.255695	            0.070042	            0.157381	           -0.031180	            0.141029	           -0.182135	           -0.423070	           -0.232311	            0.006130	           -0.833667	           -0.075090	           -0.019042	           -0.037736
            1.257000	            0.046283	           -0.541378	            0.135135	           -0.233013	            0.005581	           -0.255695	           -0.005629	            0.120350	           -0.035092	           -0.047720	            0.185653	           -0.468604	           -0.232311	            0.006130	           -0.833667	           -0.056389	            0.000065	           -0.075377
            1.257500	           -0.091653	           -0.180283	           -0.000545	           -0.233013	            0.005581	           -0.255695	           -0.112608	           -0.064607	           -0.041497	            0.001850	           -0.551273	           -0.330468	           -0.232311	            0.006130	           -0.833667	           -0.075457	            0.084870	           -0.018515
            1.258000	            0.091752	           -0.360514	           -0.001773	           -0.233013	            0.005581	           -0.255695	            0.093985	           -0.129106	           -0.053259	            0.095488	           -0.550433	           -0.471292	           -0.232311	            0.006130	           -0.833667	            0.018513	            0.066506	           -0.075173
            1.258500	            0.091671	           -0.540583	           -0.048402	           -0.233013	            0.005581	           -0.255695	           -0.054165	           -0.138299	           -0.071722	           -0.232420	           -0.551952	           -0.377296	           -0.232311	            0.006130	           -0.833667	           -0.075124	           -0.009590	           -0.037702
            1.259000	            0.045436	            0.361130	           -0.136136	           -0.233013	            0.005581	           -0.255695	            0.080552	           -0.064350	           -0.073726	            0.050050	           -0.919568	           -0.284874	           -0.232311	            0.006130	           -0.833667	            0.018922	           -0.037743	           -0.000143
            1.259500	            0.046610	           -1.082568	            0.224528	           -0.233013	            0.005581	           -0.255695	           -0.009373	            0.092945	           -0.110374	            0.238176	           -1.103542	           -0.144826	           -0.232311	            0.006130	           -0.833667	           -0.112387	           -0.094799	           -0.037990
            1.260000	            0.275238	           -0.360675	            0.043627	           -0.233013	            0.005581	           -0.255695	            0.054355	            0.185410	           -0.081589	           -0.513458	           -0.553469	           -0.236393	           -0.232311	            0.006130	           -0.833667	           -0.112814	            0.027951	            0.000149
            1.260500	            0.274896	           -0.360085	           -0.093940	           -0.233013	            0.005581	           -0.255695	            0.060386	            0.046513	           -0.025806	           -0.186214	           -0.367802	           -0.329731	           -0.232311	            0.006130	           -0.833667	           -0.000341	            0.094527	            0.000337
